<?xml version="1.0" encoding="UTF-8"?>
<svg id="Layer_1" data-name="Layer 1" xmlns="http://www.w3.org/2000/svg" viewBox="0 0 62.76 62.76">
  <defs>
    <style>
      .cls-1 {
        fill: #3d5eab;
      }

      .cls-1, .cls-2, .cls-3 {
        stroke-width: 0px;
      }

      .cls-2 {
        fill: #fff;
      }

      .cls-3 {
        fill: #4571b8;
      }
    </style>
  </defs>
  <path class="cls-3" d="M62.76,31.38c0,1.86-.16,3.69-.47,5.46-2.58,14.73-15.44,25.92-30.91,25.92-.48,0-.95-.01-1.42-.03C13.29,61.99,0,48.24,0,31.38S14.05,0,31.38,0s31.38,14.05,31.38,31.38Z"/>
  <path class="cls-1" d="M62.29,36.84c-2.58,14.73-15.44,25.92-30.91,25.92-.48,0-.95-.01-1.42-.03-6.99-6.99-12.77-12.78-12.82-12.83-.91-.79-1.4-1.99-1.27-3.24.3-2.77,1.18-5.53,3.19-6.78,3.7-2.3,7.38-3.28,7.38-3.28.13-.4.27-1.74.35-3.1-.47-.49-.93-.99-1.42-1.48-.79-.78-.99-1.84-1.23-3.17-.17-.08-.27-.23-.36-.37,0,0,0,0,0,0-.18-.08-.28-.23-.37-.37,0,0,0,0,0,0-.18-.08-.28-.23-.37-.37-.11-.17-.15-.37-.2-.57-.15-.71-.3-1.42-.45-2.14-.11-.53-.22-1.08-.15-1.62.04-.26.13-.52.34-.67.21-.15.56-.11.67.12,0,0-.34-3.35-.34-3.07-.28-.32-.51-1-.42-1.54.09-.53.26-1.05.35-1.58.09-.59.08-1.19.25-1.76.24-.8.8-1.46,1.38-2.06.41-.43.83-.84,1.29-1.22.92-.74,2.02-1.3,3.2-1.43.38-.04.76-.04,1.14-.04.43,0,.85,0,1.28,0,.43,0,.85,0,1.28,0,.38,0,.76,0,1.14.04,1.18.13,2.28.69,3.2,1.43.4.32.78.68,1.14,1.05.08.07,13.38,13.38,24.16,24.15Z"/>
  <path class="cls-2" d="M44.59,50.54c-2.32.95-6.48,2.07-13.21,2.07s-10.88-1.12-13.21-2.07c-1.54-.63-2.48-2.21-2.3-3.87.3-2.77,1.18-5.53,3.19-6.78,3.7-2.3,7.38-3.28,7.38-3.28.13-.4.27-1.74.35-3.1-.47-.49-.93-1-1.42-1.48-.93-.92-1.04-2.23-1.37-3.92-.61.17-.81-.12-.97-.37-.11-.17-.15-.37-.2-.57-.15-.71-.3-1.42-.45-2.14-.11-.54-.22-1.08-.15-1.62.04-.26.13-.52.34-.67.21-.15.56-.11.67.12,0,0-.34-3.35-.34-3.07-.28-.32-.51-1-.42-1.54.09-.53.26-1.05.35-1.58.09-.59.08-1.19.25-1.76.24-.8.8-1.46,1.38-2.06.41-.43.83-.84,1.29-1.22.92-.74,2.02-1.3,3.2-1.43.38-.04.76-.04,1.14-.04.43,0,.85,0,1.28,0,.43,0,.85,0,1.28,0,.38,0,.76,0,1.14.04,1.18.13,2.28.69,3.2,1.43.46.37.88.79,1.29,1.22.58.6,1.14,1.26,1.38,2.06.17.57.16,1.17.25,1.76.08.53.25,1.05.35,1.58.09.53-.13,1.22-.42,1.54,0-.28-.34,3.07-.34,3.07.11-.24.46-.27.67-.12.21.15.3.42.34.67.08.54-.04,1.09-.15,1.62-.15.71-.3,1.42-.45,2.14-.04.2-.08.4-.2.57-.16.25-.36.54-.97.37-.33,1.69-.44,3-1.37,3.92-.49.48-.95.99-1.42,1.48.08,1.36.22,2.7.35,3.1,0,0,3.67.98,7.38,3.28,2.01,1.25,2.89,4.01,3.19,6.78.18,1.66-.75,3.24-2.3,3.87Z"/>
</svg>